<svg xmlns="http://www.w3.org/2000/svg" xmlns:xlink="http://www.w3.org/1999/xlink" viewBox="0 0 1108.57 742.89"><defs><style>.cls-1,.cls-2{fill:#fff;}.cls-1{fill-opacity:0.15;}.cls-3{fill:url(#Gradient_bez_nazwy);}</style><linearGradient id="Gradient_bez_nazwy" x1="272.99" y1="31.61" x2="1083.59" y2="191.83" gradientTransform="matrix(1, 0, 0, -1, 0, 742.78)" gradientUnits="userSpaceOnUse"><stop offset="0.06" stop-color="#c4c4c4"/><stop offset="1" stop-color="#fff" stop-opacity="0"/></linearGradient></defs><title>Zasób 3</title><g id="Warstwa_2" data-name="Warstwa 2"><g id="Warstwa_1-2" data-name="Warstwa 1"><path class="cls-1" d="M0,30A30,30,0,0,1,30,0H998a30,30,0,0,1,30,30V580a30,30,0,0,1-30,30H30A30,30,0,0,1,0,580Z"/><path class="cls-2" d="M274.8,631.37l.09.75,334.65,31.53L514,741.8l.53,1.09L1108.57,488Z"/><path class="cls-3" d="M274.8,631.37l.09.75,334.65,31.53L514,741.8l.53,1.09L1108.57,488Z"/></g></g></svg>