<svg width="1440" height="1024" viewBox="0 0 1440 1024" fill="none" xmlns="http://www.w3.org/2000/svg">
<g clip-path="url(#clip0)">
<rect width="1440" height="1024" fill="#06396D"/>
<rect width="1440" height="1024" fill="url(#paint0_linear)"/>
<path opacity="0.3" d="M724.286 552.655C657.668 494.765 648.316 549.924 643.88 550.743C643.88 550.743 641.9 564.055 643.88 612.592L1293.27 987.442V723.662C1219.42 591.43 1170.55 499.065 1122.49 541.732C1039.22 615.528 998.676 665.089 899.636 562.69C840.936 502.001 804.282 622.15 724.286 552.655Z" fill="url(#paint1_linear)"/>
<path opacity="0.3" d="M810.083 599.212C743.465 541.322 734.114 596.413 729.609 597.3C729.609 597.3 727.63 610.612 729.609 659.15L1379 1034V770.219C1273.89 617.576 1204.6 645.974 1144.54 668.024C1085.7 689.597 1064.13 644.541 989.666 580.302C928.44 527.464 890.08 668.707 810.083 599.212Z" fill="url(#paint2_linear)"/>
<path d="M1166.18 538.319C1166.18 532.857 1162.97 526.645 1159.08 524.392C1155.12 522.14 1151.98 524.665 1151.98 530.127C1151.98 535.588 1155.19 541.8 1159.08 544.053C1162.97 546.374 1166.18 543.78 1166.18 538.319Z" fill="#F2994A"/>
<path d="M977.858 575.046C977.858 569.789 974.581 563.645 970.486 561.324C966.391 559.003 963.114 561.324 963.114 566.581C963.114 571.837 966.391 577.981 970.486 580.302C974.513 582.623 977.858 580.302 977.858 575.046Z" fill="#F2C94C"/>
<path opacity="0.07" d="M1120.72 189L1246.72 261.704V509.374L1120.72 436.67V189Z" fill="white"/>
<path opacity="0.3" d="M1222.15 283.003L1096.15 210.299L1096.08 457.969L1150.55 489.372L1159.15 506.302L1167.68 499.339L1222.15 530.673V283.003Z" fill="url(#paint3_linear)"/>
<path opacity="0.1" d="M1205.63 360.212C1205.63 368.131 1204.47 375.367 1202.28 381.443C1200.1 387.518 1196.89 392.297 1192.86 395.574C1188.84 398.85 1183.99 400.489 1178.74 400.489C1173.48 400.489 1167.75 398.782 1162.08 395.437V335.021L1205.63 360.212Z" fill="white"/>
<path opacity="0.3" d="M1162.08 395.506C1154.44 391.068 1146.93 383.969 1140.31 374.821C1133.69 365.673 1128.16 354.887 1124.34 343.487C1120.51 332.086 1118.47 320.481 1118.47 309.9C1118.47 299.318 1120.51 290.034 1124.34 283.071L1162.08 335.09V395.506Z" fill="white"/>
<path d="M1205.63 360.212C1205.63 346.9 1202.49 332.154 1196.62 318.228C1190.75 304.302 1182.56 292.014 1173.34 283.208C1164.06 274.401 1154.23 269.623 1145.36 269.623C1136.49 269.623 1129.11 274.333 1124.27 283.071L1162.01 335.09L1205.63 360.212Z" fill="#F2994A"/>
<path opacity="0.15" d="M1112.6 398.1L1189.38 442.404V451.689L1112.6 407.384V398.1Z" fill="white"/>
<path opacity="0.15" d="M1112.6 416.259L1205.7 469.984V479.268L1112.6 425.543V416.259Z" fill="white"/>
<path opacity="0.15" d="M1112.6 434.417L1172.93 469.233V478.517L1112.6 443.701V434.417Z" fill="white"/>
<path opacity="0.07" d="M931.716 226L1057.72 298.704V546.374L931.716 473.67V226Z" fill="white"/>
<path opacity="0.3" d="M1033.49 320.14L907.485 247.436L907.417 495.174L961.954 526.577L970.486 543.439L979.018 536.475L1033.49 567.81V320.14Z" fill="url(#paint4_linear)"/>
<path opacity="0.1" d="M1016.97 397.417C1016.97 407.998 1014.92 417.283 1011.1 424.246C1007.28 431.209 1001.75 435.646 995.126 437.148L973.353 372.227L1016.97 397.417Z" fill="white"/>
<path opacity="0.3" d="M995.195 437.148C986.868 438.991 977.244 436.056 967.688 428.888C958.2 421.651 949.327 410.524 942.569 397.212L973.421 372.295L995.195 437.148Z" fill="white"/>
<path d="M1016.97 397.417C1016.97 387.45 1015.19 376.664 1011.85 365.946C1008.44 355.228 1003.59 344.92 997.652 335.977C991.713 327.034 984.819 319.662 977.721 314.542C970.554 309.422 963.387 306.759 956.766 306.759C950.145 306.759 944.275 309.353 939.77 314.405C935.197 319.457 932.126 326.761 930.692 335.704C929.327 344.647 929.668 354.887 931.716 365.605C933.764 376.323 937.518 387.109 942.637 397.076L973.489 372.158L1016.97 397.417Z" fill="#F2C94C"/>
<path opacity="0.15" d="M923.936 435.305L1011.1 485.617V494.901L923.936 444.589V435.305Z" fill="white"/>
<path opacity="0.15" d="M923.936 453.395L1014.44 505.687V514.971L923.936 462.679V453.395Z" fill="white"/>
<path opacity="0.15" d="M923.936 471.554L984.274 506.37V515.654L923.936 480.838V471.554Z" fill="white"/>
<path opacity="0.3" d="M1264.78 563.747C1264.78 569.096 1263.59 572.527 1261.22 574.012C1258.84 575.498 1255.66 575.093 1251.67 572.77C1247.67 570.474 1244.49 567.205 1242.11 562.964C1239.74 558.75 1238.55 553.941 1238.55 548.593C1238.55 543.244 1239.74 539.813 1242.11 538.328C1244.49 536.842 1247.67 537.247 1251.67 539.57C1255.66 541.893 1258.84 545.135 1261.22 549.376C1263.59 553.59 1264.78 558.372 1264.78 563.747ZM1256.41 558.912C1256.41 555.994 1255.98 553.644 1255.09 551.807C1254.2 549.97 1253.07 548.674 1251.69 547.863C1250.26 547.026 1249.1 547.026 1248.21 547.809C1247.37 548.647 1246.94 550.511 1246.94 553.401C1246.94 556.319 1247.37 558.696 1248.21 560.533C1249.1 562.37 1250.26 563.693 1251.69 564.504C1253.07 565.314 1254.2 565.314 1255.09 564.504C1255.96 563.693 1256.41 561.802 1256.41 558.912ZM1279.22 556.859L1289.5 562.802L1260.54 605.348L1250.26 599.405L1279.22 556.859ZM1301.35 613.695C1301.35 619.044 1300.16 622.475 1297.78 623.961C1295.41 625.446 1292.22 625.041 1288.23 622.718C1284.24 620.422 1281.05 617.153 1278.68 612.912C1276.3 608.698 1275.12 603.889 1275.12 598.541C1275.12 593.192 1276.3 589.761 1278.68 588.276C1281.05 586.79 1284.24 587.195 1288.23 589.518C1292.22 591.814 1295.41 595.083 1297.78 599.324C1300.16 603.538 1301.35 608.347 1301.35 613.695ZM1292.98 608.86C1292.98 605.942 1292.55 603.592 1291.66 601.755C1290.77 599.918 1289.63 598.622 1288.26 597.811C1286.83 596.974 1285.67 596.974 1284.78 597.757C1283.94 598.595 1283.51 600.459 1283.51 603.349C1283.51 606.267 1283.94 608.644 1284.78 610.481C1285.67 612.318 1286.83 613.641 1288.26 614.452C1289.63 615.262 1290.77 615.262 1291.66 614.452C1292.52 613.668 1292.98 611.777 1292.98 608.86Z" fill="url(#paint5_linear)"/>
<path opacity="0.3" d="M814.463 513.156L814.492 513.217L843.413 506.569L837.572 515.769L837.645 515.846L880.36 478L814.463 513.156Z" fill="white"/>
<g opacity="0.15">
<path fill-rule="evenodd" clip-rule="evenodd" d="M778.279 466.55L782.415 503.511L765.026 514.781L761.051 479.251L691.475 530.543L688.509 504.033L758.081 452.705L753.356 410.477L745.933 415.966C740.251 420.144 730.663 426.063 721.887 424.249C712.538 422.312 706.558 412.171 704.457 393.393C702.562 376.457 706.885 360.129 714.156 346.827C720.773 334.344 729.315 325.745 735.346 321.343L742.77 315.873L738.829 280.651L756.059 267.964L757.248 278.59L759.999 303.181L809.036 267.057L812.002 293.566L762.965 329.69L767.623 371.314L773.097 367.259C779.454 362.447 788.818 357.858 797.553 359.304C806.86 360.872 814.148 369.376 816.188 387.602C818.227 405.827 813.802 422.911 806.062 437.011C798.913 449.741 790.002 458.38 783.583 462.64L778.279 466.55ZM775.308 439.995L770.58 397.74L776.227 393.564L776.39 393.359C778.966 391.394 783.198 389.242 786.819 389.956C789.867 390.547 793.305 392.958 794.479 403.451C795.653 413.944 793.04 420.574 790.896 424.729C788.119 429.886 784.072 433.694 781.476 435.475L781.128 435.701L775.308 439.995ZM750.4 384.068L743.151 389.436C738.859 392.713 735.485 394.208 733.01 393.74C731.107 393.393 727.506 391.187 726.002 377.748C725.013 368.912 727.136 362.896 729.485 358.905C732.242 353.564 735.9 349.613 738.312 347.852L745.736 342.383L750.4 384.068Z" fill="white"/>
<path d="M782.415 503.511L782.912 503.456L782.946 503.763L782.687 503.931L782.415 503.511ZM778.279 466.55L777.782 466.606L777.75 466.319L777.982 466.148L778.279 466.55ZM765.026 514.781L765.298 515.201L764.62 515.641L764.53 514.837L765.026 514.781ZM761.051 479.251L760.754 478.849L761.451 478.335L761.548 479.195L761.051 479.251ZM691.475 530.543L691.772 530.945L691.075 531.459L690.979 530.598L691.475 530.543ZM688.509 504.033L688.012 504.089L687.98 503.802L688.212 503.631L688.509 504.033ZM758.081 452.705L758.577 452.649L758.609 452.936L758.377 453.107L758.081 452.705ZM753.356 410.477L753.058 410.075L753.756 409.559L753.852 410.422L753.356 410.477ZM745.933 415.966L746.231 416.368L746.229 416.369L745.933 415.966ZM721.887 424.249L721.786 424.738L721.786 424.738L721.887 424.249ZM714.156 346.827L714.598 347.061L714.595 347.067L714.156 346.827ZM735.346 321.343L735.642 321.745L735.64 321.746L735.346 321.343ZM742.77 315.873L743.267 315.818L743.299 316.105L743.067 316.276L742.77 315.873ZM738.829 280.651L738.332 280.707L738.3 280.42L738.532 280.248L738.829 280.651ZM756.059 267.964L755.762 267.561L756.459 267.048L756.556 267.908L756.059 267.964ZM757.248 278.59L756.751 278.646L757.248 278.59ZM759.999 303.181L760.296 303.584L759.599 304.097L759.502 303.237L759.999 303.181ZM809.036 267.057L808.739 266.655L809.437 266.141L809.533 267.002L809.036 267.057ZM812.002 293.566L812.499 293.511L812.531 293.798L812.299 293.969L812.002 293.566ZM762.965 329.69L762.468 329.746L762.436 329.459L762.669 329.288L762.965 329.69ZM767.623 371.314L767.92 371.715L767.222 372.232L767.126 371.369L767.623 371.314ZM773.097 367.259L773.399 367.658L773.395 367.661L773.097 367.259ZM797.553 359.304L797.635 358.811L797.636 358.811L797.553 359.304ZM806.062 437.011L806.5 437.252L806.498 437.256L806.062 437.011ZM783.583 462.64L783.287 462.237L783.297 462.23L783.307 462.223L783.583 462.64ZM775.308 439.995L775.605 440.397L774.907 440.912L774.811 440.05L775.308 439.995ZM770.58 397.74L770.083 397.796L770.051 397.509L770.282 397.338L770.58 397.74ZM776.227 393.564L776.618 393.876L776.577 393.927L776.524 393.966L776.227 393.564ZM776.39 393.359L776 393.047L776.038 392.999L776.087 392.962L776.39 393.359ZM786.819 389.956L786.724 390.447L786.722 390.446L786.819 389.956ZM790.896 424.729L791.34 424.958L791.336 424.966L790.896 424.729ZM781.476 435.475L781.759 435.888L781.748 435.895L781.476 435.475ZM781.128 435.701L780.831 435.298L780.843 435.289L780.856 435.281L781.128 435.701ZM750.4 384.068L750.897 384.012L750.929 384.298L750.698 384.469L750.4 384.068ZM743.151 389.436L742.848 389.039L742.854 389.034L743.151 389.436ZM733.01 393.74L733.099 393.248L733.103 393.248L733.01 393.74ZM729.485 358.905L729.929 359.134L729.923 359.147L729.916 359.159L729.485 358.905ZM738.312 347.852L738.608 348.255L738.607 348.256L738.312 347.852ZM745.736 342.383L745.44 341.98L746.137 341.466L746.233 342.327L745.736 342.383ZM781.918 503.567L777.782 466.606L778.776 466.495L782.912 503.456L781.918 503.567ZM764.755 514.362L782.143 503.092L782.687 503.931L765.298 515.201L764.755 514.362ZM761.548 479.195L765.523 514.726L764.53 514.837L760.554 479.307L761.548 479.195ZM691.179 530.14L760.754 478.849L761.348 479.653L691.772 530.945L691.179 530.14ZM689.006 503.978L691.972 530.487L690.979 530.598L688.012 504.089L689.006 503.978ZM758.377 453.107L688.806 504.436L688.212 503.631L757.784 452.302L758.377 453.107ZM753.852 410.422L758.577 452.649L757.584 452.76L752.859 410.533L753.852 410.422ZM745.636 415.564L753.058 410.075L753.653 410.879L746.231 416.368L745.636 415.564ZM721.988 423.759C726.237 424.637 730.718 423.649 734.876 421.894C739.028 420.14 742.81 417.642 745.637 415.563L746.229 416.369C743.374 418.468 739.521 421.018 735.265 422.815C731.013 424.61 726.313 425.674 721.786 424.738L721.988 423.759ZM704.954 393.337C706.001 402.692 708.009 409.847 710.888 414.888C713.76 419.917 717.484 422.826 721.988 423.759L721.786 424.738C716.941 423.735 713.001 420.605 710.02 415.384C707.046 410.177 705.014 402.871 703.96 393.449L704.954 393.337ZM714.595 347.067C707.364 360.295 703.072 376.52 704.954 393.337L703.96 393.449C702.052 376.393 706.406 359.964 713.717 346.587L714.595 347.067ZM735.64 321.746C729.669 326.106 721.178 334.647 714.598 347.061L713.714 346.593C720.368 334.04 728.961 325.385 735.051 320.939L735.64 321.746ZM743.067 316.276L735.642 321.745L735.049 320.94L742.473 315.471L743.067 316.276ZM739.326 280.596L743.267 315.818L742.273 315.929L738.332 280.707L739.326 280.596ZM756.355 268.367L739.125 281.054L738.532 280.248L755.762 267.561L756.355 268.367ZM756.751 278.646L755.562 268.02L756.556 267.908L757.744 278.535L756.751 278.646ZM759.502 303.237L756.751 278.646L757.744 278.535L760.496 303.126L759.502 303.237ZM809.333 267.46L760.296 303.584L759.703 302.779L808.739 266.655L809.333 267.46ZM811.505 293.622L808.539 267.113L809.533 267.002L812.499 293.511L811.505 293.622ZM762.669 329.288L811.706 293.164L812.299 293.969L763.262 330.093L762.669 329.288ZM767.126 371.369L762.468 329.746L763.462 329.635L768.12 371.258L767.126 371.369ZM773.395 367.661L767.92 371.715L767.325 370.912L772.8 366.858L773.395 367.661ZM797.471 359.797C788.942 358.385 779.721 362.873 773.399 367.658L772.796 366.861C779.188 362.022 788.694 357.331 797.635 358.811L797.471 359.797ZM815.691 387.657C813.662 369.523 806.45 361.31 797.47 359.797L797.636 358.811C807.27 360.434 814.635 369.229 816.684 387.546L815.691 387.657ZM805.623 436.771C813.321 422.748 817.717 405.766 815.691 387.657L816.684 387.546C818.737 405.887 814.283 423.074 806.5 437.252L805.623 436.771ZM783.307 462.223C789.656 458.01 798.514 449.431 805.626 436.767L806.498 437.256C799.312 450.051 790.349 458.75 783.86 463.056L783.307 462.223ZM777.982 466.148L783.287 462.237L783.88 463.042L778.576 466.953L777.982 466.148ZM774.811 440.05L770.083 397.796L771.077 397.685L775.805 439.939L774.811 440.05ZM770.282 397.338L775.93 393.162L776.524 393.966L770.877 398.142L770.282 397.338ZM775.836 393.252L776 393.047L776.781 393.671L776.618 393.876L775.836 393.252ZM776.087 392.962C777.406 391.955 779.15 390.9 781.036 390.185C782.916 389.473 784.98 389.084 786.916 389.465L786.722 390.446C785.037 390.114 783.174 390.444 781.39 391.12C779.61 391.795 777.95 392.798 776.694 393.757L776.087 392.962ZM786.914 389.465C788.547 389.781 790.29 390.595 791.762 392.704C793.217 394.789 794.384 398.109 794.976 403.396L793.982 403.507C793.399 398.299 792.261 395.167 790.942 393.276C789.639 391.409 788.138 390.721 786.724 390.447L786.914 389.465ZM794.976 403.396C796.164 414.01 793.518 420.739 791.34 424.958L790.452 424.499C792.563 420.409 795.143 413.878 793.982 403.507L794.976 403.396ZM791.336 424.966C788.516 430.202 784.412 434.067 781.759 435.887L781.193 435.063C783.732 433.32 787.721 429.57 790.456 424.491L791.336 424.966ZM781.748 435.895L781.4 436.12L780.856 435.281L781.204 435.056L781.748 435.895ZM781.425 436.103L775.605 440.397L775.011 439.592L780.831 435.298L781.425 436.103ZM750.698 384.469L743.449 389.838L742.854 389.034L750.103 383.666L750.698 384.469ZM743.454 389.834C741.291 391.485 739.338 392.705 737.596 393.452C735.858 394.198 734.29 394.491 732.917 394.231L733.103 393.248C734.205 393.457 735.561 393.237 737.202 392.533C738.839 391.83 740.719 390.664 742.848 389.039L743.454 389.834ZM732.92 394.232C731.807 394.029 730.314 393.29 728.924 390.905C727.548 388.544 726.261 384.554 725.505 377.804L726.499 377.693C727.247 384.381 728.513 388.214 729.788 390.402C731.051 392.567 732.31 393.104 733.099 393.248L732.92 394.232ZM725.505 377.804C724.504 368.852 726.654 362.728 729.054 358.651L729.916 359.159C727.617 363.063 725.523 368.971 726.499 377.693L725.505 377.804ZM729.04 358.676C731.828 353.275 735.535 349.261 738.017 347.448L738.607 348.256C736.265 349.966 732.655 353.853 729.929 359.134L729.04 358.676ZM738.015 347.449L745.44 341.98L746.033 342.785L738.608 348.255L738.015 347.449ZM746.233 342.327L750.897 384.012L749.904 384.123L745.239 342.438L746.233 342.327Z" fill="white"/>
</g>
<path fill-rule="evenodd" clip-rule="evenodd" d="M0 672.039V1024.26H1440V706.369C1305.37 788.53 1129.86 826.263 911.678 757.847C558.836 647.205 224.321 645.766 0 672.039Z" fill="#303ABB"/>
</g>
<defs>
<linearGradient id="paint0_linear" x1="720" y1="0" x2="720" y2="1024" gradientUnits="userSpaceOnUse">
<stop stop-color="#06396D"/>
<stop offset="0.0001" stop-color="#0C3978"/>
<stop offset="0.604167" stop-color="#303ABB"/>
<stop offset="0.895833" stop-color="#4F3AF4"/>
<stop offset="1" stop-color="#8042FE"/>
</linearGradient>
<linearGradient id="paint1_linear" x1="1086.76" y1="393.517" x2="1004.04" y2="656.304" gradientUnits="userSpaceOnUse">
<stop stop-color="white"/>
<stop offset="1" stop-color="white" stop-opacity="0"/>
</linearGradient>
<linearGradient id="paint2_linear" x1="1122.56" y1="506.643" x2="1075.58" y2="719.276" gradientUnits="userSpaceOnUse">
<stop stop-color="white"/>
<stop offset="1" stop-color="white" stop-opacity="0"/>
</linearGradient>
<linearGradient id="paint3_linear" x1="1159.11" y1="251.738" x2="1159.11" y2="557.813" gradientUnits="userSpaceOnUse">
<stop stop-color="white" stop-opacity="0"/>
<stop offset="1" stop-color="white"/>
</linearGradient>
<linearGradient id="paint4_linear" x1="970.452" y1="287.015" x2="970.452" y2="601.91" gradientUnits="userSpaceOnUse">
<stop stop-color="white" stop-opacity="0"/>
<stop offset="1" stop-color="white"/>
</linearGradient>
<linearGradient id="paint5_linear" x1="1284.6" y1="560.589" x2="1246.1" y2="614.511" gradientUnits="userSpaceOnUse">
<stop stop-color="white"/>
<stop offset="1" stop-color="white" stop-opacity="0"/>
</linearGradient>
<clipPath id="clip0">
<rect width="1440" height="1024" fill="white"/>
</clipPath>
</defs>
</svg>
