<svg width="149" height="40" viewBox="0 0 149 40" fill="none" xmlns="http://www.w3.org/2000/svg">
<path d="M85.6416 29.1618V29.219L110.241 34.683L102.404 39.6035L102.432 39.6893L149 26.2725L85.6416 29.1618Z" fill="white"/>
<path d="M6.97946 5.98977V8.85051H13.9017V13.9998H6.97946V17.1466H14.8457V22.7251H0V0.439941H14.8457V5.98977H6.97946Z" fill="white"/>
<path d="M33.2094 22.7251L29.1189 17.0036L25.715 22.7251H17.763L25.0857 11.2821L17.5342 0.439941H25.8008L29.7482 6.16142L33.0091 0.582979H40.9611L33.667 11.7112L41.476 22.7251H33.2094Z" fill="white"/>
<path d="M51.4023 15.6591V22.7251H44.4229V0.439963H54.1769C55.3073 0.357089 56.4428 0.498967 57.518 0.857403C58.5932 1.21584 59.5867 1.78374 60.4413 2.5283C61.1791 3.24566 61.7567 4.11101 62.1363 5.06752C62.5159 6.02402 62.6889 7.05003 62.6438 8.07813C62.6585 9.42243 62.3128 10.7461 61.6427 11.9115C61.004 13.1351 60.0057 14.1335 58.7822 14.7723C57.3566 15.493 55.7738 15.8469 54.1769 15.8021L51.4023 15.6591ZM55.5499 8.07813C55.5499 6.73358 54.8348 6.04701 53.376 6.04701H51.4023V10.1379H53.376C54.7204 10.1379 55.5499 9.39407 55.5499 8.07813Z" fill="white"/>
<path d="M73.113 5.98977V8.85051H80.0352V13.9998H73.113V17.1466H80.9792V22.7251H66.1621V0.439941H81.0078V5.98977H73.113Z" fill="white"/>
<path d="M107.009 22.7251H100.03L92.6211 11.511V22.7251H85.6416V0.439941H92.6211L100.03 11.8829V0.439941H107.009V22.7251Z" fill="white"/>
<path d="M128.176 19.6068C127.47 20.6705 126.479 21.5133 125.315 22.0384C123.906 22.6771 122.371 22.99 120.825 22.9538C118.477 23.0455 116.162 22.3839 114.217 21.0658C113.343 20.4383 112.629 19.6144 112.132 18.6603C111.636 17.7063 111.37 16.6488 111.357 15.5731H118.794C118.794 16.8605 119.452 17.4898 120.481 17.4898C120.788 17.5047 121.091 17.4138 121.339 17.2324C121.454 17.1277 121.544 16.9991 121.603 16.8558C121.663 16.7124 121.69 16.5578 121.683 16.4028C121.683 16.1383 121.611 15.8789 121.475 15.6521C121.339 15.4254 121.144 15.2399 120.91 15.1154C120.07 14.7076 119.2 14.3634 118.307 14.0856C117.104 13.699 115.929 13.2306 114.789 12.6838C113.826 12.1634 112.994 11.4295 112.358 10.5382C111.633 9.45883 111.272 8.17571 111.328 6.8765C111.289 5.5489 111.68 4.24422 112.444 3.15754C113.215 2.09579 114.278 1.28089 115.504 0.811739C116.884 0.253554 118.364 -0.0189383 119.852 0.0107329C122.134 -0.0948638 124.385 0.581257 126.231 1.92743C127.027 2.57504 127.67 3.3902 128.115 4.31485C128.56 5.23949 128.796 6.25089 128.805 7.27701H121.254C121.254 6.1041 120.682 5.50335 119.823 5.50335C119.687 5.49758 119.55 5.51999 119.422 5.5692C119.294 5.61841 119.178 5.69336 119.08 5.78942C118.986 5.89913 118.915 6.02647 118.87 6.16401C118.826 6.30154 118.81 6.4465 118.822 6.59043C118.83 6.84207 118.909 7.08633 119.051 7.29423C119.193 7.50212 119.392 7.66493 119.623 7.76333C120.42 8.18918 121.253 8.5434 122.112 8.82181C123.329 9.22961 124.515 9.72682 125.659 10.3094C126.627 10.8472 127.466 11.5891 128.119 12.4835C128.824 13.5698 129.164 14.8524 129.091 16.1453C129.129 17.3636 128.811 18.5666 128.176 19.6068Z" fill="white"/>
<path d="M140.361 5.98977V8.85051H147.284V13.9998H140.361V17.1466H148.227V22.7251H133.382V0.439941H148.227V5.98977H140.361Z" fill="white"/>
<path d="M8.40989 27.5881V28.5894H4.94876V39.6891H3.74738V28.5894H0.37207V27.5881H8.40989Z" fill="white"/>
<path d="M18.3639 39.6893L15.0458 34.6544H13.1007V39.6893H11.8135V27.5884H15.532C16.6308 27.5056 17.7185 27.8545 18.5641 28.561C18.912 28.896 19.1839 29.3018 19.3615 29.7509C19.5392 30.2 19.6184 30.682 19.5939 31.1643C19.6363 32.0472 19.3278 32.9111 18.7357 33.5673C18.0615 34.192 17.1929 34.5658 16.2758 34.6258L19.6797 39.6893H18.3639ZM13.1007 33.739H15.5034C17.4485 33.739 18.3639 32.9094 18.3639 31.2215C18.3639 29.5337 17.3913 28.6469 15.5034 28.6469H13.1007V33.739Z" fill="white"/>
<path d="M30.4925 36.7427H25.0004L23.8849 39.6034H22.5977L27.0599 27.7886H28.4329L32.8952 39.6034H31.5794L30.4925 36.7427ZM30.1492 35.7986L27.7464 29.4192L25.3437 35.9417L30.1492 35.7986Z" fill="white"/>
<path d="M45.3662 28.5324C46.3154 29.254 47.0154 30.2541 47.3685 31.3931H46.1385C45.8435 30.5425 45.2817 29.81 44.5366 29.3048C43.6899 28.7488 42.6877 28.4781 41.6762 28.5324C40.8781 28.5203 40.0935 28.7388 39.4165 29.1617C38.7156 29.5775 38.1571 30.1959 37.8146 30.9354C37.4029 31.7608 37.1968 32.6736 37.2139 33.5959C37.1897 34.5189 37.3962 35.4333 37.8146 36.2563C38.1571 36.9958 38.7156 37.6142 39.4165 38.03C40.099 38.4402 40.8799 38.6577 41.6762 38.6594C42.6877 38.7136 43.6899 38.443 44.5366 37.887C45.2748 37.3744 45.8347 36.6444 46.1385 35.7986H47.3971C47.044 36.9376 46.344 37.9378 45.3948 38.6594C44.3383 39.3903 43.0745 39.7615 41.7906 39.7178C40.7833 39.7074 39.7965 39.4311 38.9302 38.9168C38.0592 38.3886 37.3552 37.625 36.8993 36.7141C36.415 35.7264 36.1701 34.6386 36.1842 33.5386C36.174 32.43 36.4187 31.3338 36.8993 30.3346C37.3686 29.433 38.0696 28.6727 38.9302 28.1319C39.95 27.5796 41.1006 27.3146 42.2592 27.3649C43.4179 27.4153 44.5411 27.7792 45.5092 28.4179L45.3662 28.5324Z" fill="white"/>
<path d="M53.719 33.6243L59.4399 39.6891H57.9524L52.6607 33.9676V39.6891H51.4307V27.5881H52.6607V33.3096L57.9524 27.5881H59.4399L53.719 33.6243Z" fill="white"/>
<path d="M64.1314 28.5894V33.138H68.8511V34.082H64.1314V38.7164H69.366V39.6891H62.9014V27.5881H69.366V28.5894H64.1314Z" fill="white"/>
<path d="M79.8057 39.6893L76.4876 34.6544H74.5425V39.6893H73.3125V27.5884H77.0311C78.1298 27.5056 79.2175 27.8545 80.0631 28.561C80.411 28.896 80.6829 29.3018 80.8606 29.7509C81.0382 30.2 81.1174 30.682 81.0929 31.1643C81.1353 32.0472 80.8268 32.9111 80.2348 33.5673C79.5605 34.192 78.6919 34.5658 77.7748 34.6258L81.1787 39.6893H79.8057ZM74.5425 33.739H76.9453C78.8904 33.739 79.8057 32.9094 79.8057 31.2215C79.8057 29.5337 78.8331 28.6469 76.9453 28.6469H74.5425V33.739Z" fill="white"/>
</svg>
