<svg xmlns="http://www.w3.org/2000/svg" xmlns:xlink="http://www.w3.org/1999/xlink" viewBox="0 0 477 739"><defs><style>.cls-1,.cls-4{opacity:0.15;}.cls-2,.cls-6{fill:#c4c4c4;}.cls-2{fill-rule:evenodd;}.cls-3{opacity:0.3;fill:url(#Gradient_bez_nazwy);}.cls-3,.cls-4{isolation:isolate;}.cls-4{fill:#fff;}.cls-5{fill:#f2c94c;}</style><linearGradient id="Gradient_bez_nazwy" x1="132.66" y1="1121.51" x2="63.97" y2="1002.51" gradientTransform="matrix(1, 0, 0, -1, 0, 1134.13)" gradientUnits="userSpaceOnUse"><stop offset="0" stop-color="#fff"/><stop offset="1" stop-color="#fff" stop-opacity="0"/></linearGradient></defs><title>Zasób 2</title><g id="Warstwa_2" data-name="Warstwa 2"><g id="Warstwa_1-2" data-name="Warstwa 1"><g class="cls-1"><path class="cls-2" d="M47,0l77.38,44.65V150.21l-34.67-20v16l34.67,20V188L47,143.35Zm7.57,85.09L116.72,121v6.28L54.57,91.37Zm57.76,45.57L58.91,99.82v6.28l53.42,30.84Zm-26.82-67c4.94,2.86,8.95-.42,8.95-7.34s-4-14.92-8.95-17.82-9,.41-9,7.34S80.57,60.76,85.51,63.67Zm0,5.58c-8-4.66-14.6-.27-15.75,9.75a5.82,5.82,0,0,0,2.72,5L98.53,99.22c1.61.92,2.9.18,2.72-1.8C100.09,86,93.49,73.92,85.51,69.25Z"/></g><path class="cls-3" d="M47,0l77.38,44.65V188L47,143.35Z"/><path class="cls-4" d="M54.57,85.09,116.72,121v6.28L54.57,91.37Z"/><path class="cls-4" d="M58.91,99.82l53.42,30.84v6.28L58.91,106.1Z"/><path class="cls-5" d="M143.54,161.27,89.71,130.2v16l53.83,31.07Z"/><path class="cls-5" d="M94.46,56.33c0,6.92-4,10.2-8.95,7.34s-9-10.85-9-17.82,4-10.21,9-7.34S94.46,49.4,94.46,56.33Z"/><path class="cls-5" d="M85.51,69.25c-8-4.66-14.6-.27-15.75,9.75a5.82,5.82,0,0,0,2.72,5L98.53,99.22c1.61.92,2.9.18,2.72-1.8C100.09,86,93.49,73.92,85.51,69.25Z"/><path class="cls-5" d="M167,60.16a10.94,10.94,0,0,1,5,8.63V82.87l9.32,5.36a10.93,10.93,0,0,1,5,8.68c0,3.18-2.21,4.48-5,2.91L172,94.46v14.08c0,3.19-2.22,4.48-5,2.91a10.94,10.94,0,0,1-5-8.68V88.69l-9.33-5.35a10.94,10.94,0,0,1-5-8.64c0-3.18,2.22-4.48,5-2.91L162,77.15V63.07C162,59.88,164.22,58.59,167,60.16Z"/><g class="cls-1"><path class="cls-6" d="M0,104A30,30,0,0,1,30,74H447a30,30,0,0,1,30,30V709a30,30,0,0,1-30,30H30A30,30,0,0,1,0,709Z"/></g></g></g></svg>